<?xml version="1.0" encoding="UTF-8"?>
<svg id="Layer_2" data-name="Layer 2" xmlns="http://www.w3.org/2000/svg" viewBox="0 0 286.46 243.09">
  <g id="Layer_1-2" data-name="Layer 1">
    <g>
      <path d="M61.12,100.14c4.25-5.08,7.4-11.64,9.86-18.04,5.05-13.13,9.71-25.85,15.98-38.2,1.22-2.4,7.26-11.98,6.84-12.15-.27-.12-1.01-.43-1.65-.4l-6.07.23-11.97.68c-3.42.19-6.62.79-9.74,1.37-9.3,1.72-20.37,4.92-27.14,12.56-5.38,6.07-3.98,14.99,2.5,19.3,5.77,3.83,14.48-1,18.67-6.68,5.13,3.95,4.84,16.31.71,21.21-5.29,6.27-12.08,10.11-19.81,11.73-6.13,1.28-15.36.15-20.02-4.78-6.21-6.56-7.12-19.86-3.55-27.15,3.95-8.07,9.4-15.37,16.43-21.38,5.85-5,16.96-10.41,23.93-12.32l4.98-1.37c22.56-6.18,27.58-3.39,47.02-4.69l13.92-.93,4.04-.95c2.74-.64,5.28-.7,8.06-1.11,10.65-1.55,20.94-3.85,30.21-8.81l4.63-2.48,5.33-3.46c1.36-.88,2.33-1.57,3.67-2.29.72,2.66-.36,4.48-1.93,6.09-10.02,10.31-27.78,17.92-41.25,20.72l-4.74.99c-9.06,1.88-15.65,1.55-24.74,2.52-6.4,9.24-11.55,19.16-14.96,29.8-2.04,6.35-2.91,12.57-4.61,18.97l-1.61,6.08c-5.1,19.31-10.73,38.1-30.55,48.23-8.28,4.23-13.32,7.01-23.47,6.83-8.06-.14-19.89-2.79-24.96-9.24-6.66-8.47-6.05-15.29-2.84-24.6,3.66-10.61,19.42-12.34,20.97-10.73.58.6.15,1.46.31,2.5,1.48,9.71,10.98,16.95,19.78,15.35,4.94-.9,9.2-3.15,12.69-7.33l5.05-6.04Z"/>
      <path d="M243.56,84.84c3.28,14.51-6.07,26.12-19.18,28.84-8.78,1.82-17.95-2.23-20-11.65-1.62-7.49,4.39-15.22,11.07-17.75,1.07-.4,1.07,1.73,1.13,2.6.41,5.97,5.01,11.4,11.68,10.05,2.85-.57,5.04-4.82,4.8-7.74-.42-5.22-9.49-17.56-10.82-24.06-1.51-7.39,2.34-14.37,8.86-18,4.48-2.5,10.39-2.25,14.89.26,3.04,1.7,3.32,5.57,3.12,8.73-.3,4.72-4.37,8.06-8.92,8.08-2.41,0-4.24-.27-5.3-2.77,2.3-.45,3.94-1.21,4.21-3.33.16-1.28.69-2.83-.27-3.88-1.33-1.46-3.59-1.07-4.84-.47-1.71.82-2.56,3.09-2.05,5.38,1.8,8.11,8.54,12.08,11.62,25.69Z"/>
      <path d="M216.97,49.75c2.7-1.64,5.19-8.24,3.41-8.88-2.46-.89-4.42-2.64-4.32-5.8.11-3.59,1.65-7.26,4.91-8.86,2.21-1.08,3.9-1.5,5.68-.57,6.49,3.38,3.53,15.87-4.67,22.17-1.44,1.11-2.42,2.93-5.02,1.95Z"/>
      <path d="M122.14,47.09c-.12,4.99-4.25,8.21-8.99,8.12-2.15-.04-3.62-.7-4.93-2.47-2.11-2.84-1.55-6.4,0-9.72,2.13-4.59,8.63-7.12,11.89-3.11,1.7,2.1,2.09,4.94,2.04,7.18Z"/>
      <path d="M286.43,124.06c-.01-.84.14-1.3-.14-1.57-5.35-5.1-10.61,20.57-47.92,26.07l-9.28,1.37c-2.59.38-4.86.56-7.25.72l-12.72.89-7.93.85-7.06.85c-9.42,1.13-19.66,6.74-28.05,10.97l-7.98,4.02c-6.73,3.39-10.96,4-18.27,2.28-7.08-1.67,3.18-10.51-5.89-21.33,3.69-6.65,5.93-14.81.57-20.16l-2.58,5.1c-1.28,2.54-2.5,4.67-4.87,6.27-8.5-4.1-18.02-1.81-24.39,5.86-4.95-1.22-5.86-7.58-7.25-8.57-2.02-1.43-9.22,12.88.7,19.2.86.4,2.85,2.58,3,3.23-1.87,7.45,1.88,15.89,10.3,18.78,1.34.46,2.45.46,2.68,2.21,1.17,8.75,7.43,15.2,15.07,19.02l4.3,2.15c-4.71,7.04-22.25,22.08-29.3,25.75-5.4,2.82-3.92,2.82-7.07,5.26-2.57.17-2.49,3.49-1.55,5.32,6.28,12.14,25.85-3.56,31.76-9.48,0,0,8.74-8.83,8.77-8.85,14.61-9.39,13.77-8.25,27.79-15.81,4.47-2.41,21.45-9.58,26.25-10.62l3.99-.87c7.62-1.64,30.67-1.44,38.05-.04.87.11,20.44,3.18,17.95,2.96,6.49.56,32.46,1.77,33.98-5.29.24-1.1-.3-3.12-1.84-3.45-3.26-.68-6.02-.4-9.14-.11-8.22.75-8.86-.35-14.07-1.84-13.73-3.94-14.45-18.11-29.49-23.93,6.55-2.77,12.25-4.14,18.58-6.19,11.58-3.75,40.45-16.37,40.3-31.02ZM108.02,164.93c-1.65-.94-2.09-2.82-1.92-4.39.14-1.29.92-3.35,2.71-3.25.48.03.84,1.2,1.11,1.47.55.57.91.35,1.67-1.05.94-1.73,2.76-.1,3.41,1.33,1.11,2.51.29,4.38-1.08,5.72-1.55,1.52-3.67,1.42-5.9.17ZM124.11,172.77c-5.56-.44-3.39,3.51-8.78,5.03-1.58.45-2.65.73-3.28-.32,1.67-.33,2.22-1.33,3.22-1.32,1.28-1.35,2.39-2.1,3.41-4.14-1.37-1.74-2.43-4.17-.43-5.67,1.2-.9,2.67.27,3.3.81.52.45.37,2.3.92,2.6,2.91,1.6,5.73.5,8.62-.57-1.27,2.69-3.93,3.82-6.98,3.58ZM131.31,158.15c-.26,1.96-2,2.71-3.2,3.2-1.55.63-3.27.2-4.79-1.34-1.38-2.35-1.17-4.92.58-7,1.59.9,1.86,1.85,3.01,2.18.63-1.26.51-2.11,1.39-2.66,2.03.94,3.34,3.19,3.01,5.62Z"/>
      <g>
        <path d="M90.17,132.19c-5.18,1.51-9.57-1.44-10.6-6.29-.9-4.23,1.09-10.53,3.17-14.84,6.34-13.1,15.14-33.17,17.03-46.8l11.35-3.28c1.38-.4,2.16-1.35,4.08-.73l-1.97,4.85-8.3,21-4.91,11.96c-.72,1.75-.75,3.08-1,5.15-.42,3.43,1.87,8.39,5.91,7.27,5.83-1.61,10.05-13.86,11.67-18.53,3.62-10.47,6.74-20.73,8.53-31.91,3.96-1.07,7.44-1.44,11.8-2.11.61,2.15-.31,3.29-.81,5.11,6.14-2.44,15.8-11.39,22.7-5.69,3.11,2.57,3.93,6.44,2.94,10.05-2.27,8.26-4.4,13.56-6.72,21.86-.91,3.26-3.95,13.57-.23,15.49,1.93,1,6.69-3.3,8.15-7.7,4.54-13.74,7.18-27.43,9.25-41.77,2.17.18,14.8-6.18,12.8-1.63-1.64,2.3-1.41,4.9-2.09,7.43l-4.82,18.02c-1.37,5.14-5.97,18.77.97,22.04,1.94.92,3.95.03,5.29-.97,5.3-3.91,7.67-15.31,9.4-22.23,2.63-10.54,3.92-16.81,5.46-27.79.29-.57,13.22-5.41,13.93-3.75-1.45,3.79-2.46,7.69-4.03,11.73l-1.93,4.97c-1.03,2.65-1.54,5.25-2.25,8.03l-4.89,18.97-2.92,11.02-4.89,16.99-2.6,9.77c-2.99,11.24-8.05,21.04-19.48,26.17-8.47,3.8-19.37,3.2-23.7-5.12-3.27-6.27-.62-15.93,5.3-19.22,1.7-.94,3.28-1.71,5.39-2.61-1.47,5.14,1.46,10.75,6.96,10.91,3.98.12,7.74-2.21,10.36-4.49,5.36-4.65,8.13-10.85,9.26-17.32-5.39,4.7-12.59,8.55-18.69,5.85-6.85-3.03-3.61-8.77-7.19-4.15-2.81,3.63-5.88,7.28-10.7,8.17-5.19.97-10.9-1.7-11.95-6.84-1.38-6.72,3.91-17.3,5.8-23.1l3.54-10.83c1.45-4.45,9.99-20.34,1.58-19.27-5.11.65-13.18,7.64-13.67,9.06-3.28,9.48-5.75,18.57-8.34,28.06l-2.99,10.95c-.82,2.99-2.15,10.05-2,12.93-4.78.85-11.09,1.65-16.27,1.79l3.01-6.58c-6.57,3.76-8.92,8-15.69,9.97Z"/>
        <path d="M166.07,105.75c-1.39-.17-1.97-.79-1.9-1.56,1.65-.46,2.34.24,1.9,1.56Z"/>
      </g>
    </g>
  </g>
</svg>