<?xml version="1.0" encoding="UTF-8"?>
<svg id="Layer_2" data-name="Layer 2" xmlns="http://www.w3.org/2000/svg" viewBox="0 0 564.65 320.36">
  <g id="Layer_1-2" data-name="Layer 1">
    <g>
      <path d="M237.81,280.69l11.05-18.37c3.76-6.25,6.85-12.03,9.8-19l12.27-1.48c-5.15,13.22-11.96,20.74-17.7,32.67-.45.94.12,3.55.49,4.45,2.72,6.61,13.85-10.27,15.59-14.27l9.93-22.79,9.62-.99.06,3.83c5.11-3.55,15.63-8.3,20.36-2.65,1.51,1.8,1.88,6.45.87,8.73l-10.37,23.41c-.45,1.02.22,3.99.76,4.91.65,1.09,4.81-.04,5.36-1.22l9.47-20.05c2.79-5.9,4.04-11.24,5.32-17.87l10.73-1.13c-3.09,10.63-6.81,19.39-10.96,29.12-1.49,3.49-2.15,8.17,2.14,10.12,10.43,4.73,19.21-33.61,21.26-40.82,3.98-1.12,8.34-1.45,12.92-1.29-3.73,7.74-6.89,14.34-9.83,22.09l-12.13,32.03c-2.56,6.76-5.77,13.12-9.29,19.34-6.75,11.93-25.89,14.82-33.77,4.91-2.49-3.14-2.27-7.9-.31-11.4,1.63-2.91,6.03-5.69,9.2-6.26.51,3.42.98,6.27,2.33,7.7s5.13,2.54,7.13,2.22c7.29-1.15,11.87-6.2,14.54-13l-5.65,2.5c-6.18,2.74-11.05-.44-14.18-6.83-4.9,3.83-10.89,6.38-17.05,4.72-4.03-1.09-5.49-5.99-3.94-10.08,3.68-9.74,8.58-18.6,13.58-27.82,1.4-2.57,2.31-5.43,2.57-8.46-9.65-1.06-14.85,5.82-18.25,13.24-5.04,11.01-10.17,21.01-12.94,32.94-4.98,1.14-9.91.54-14.88-.23-4.62-.72-11.44,3.94-16.57-.97-2.55-2.44-1.62-8.46.47-11.94Z"/>
      <path d="M218.72,270.74c17.35-14.05,18.72-33.21,37.49-50.91-13.77-1.2-37.22.72-48.48,9.09-2.34,1.74-3.77,5.7-3.06,7.84.95,2.87,3.79,5.66,7.27,5.93,4.11.32,7.96-2.45,11.66-5.04,4.87,4.74,2.24,11.96-2.5,16.4-6.97,6.53-17.94,8.05-26.46,4-7.13-3.39-9.94-9.95-7.84-17.35,2.39-8.42,8.46-14.25,16.17-18.49,21.83-12,48.16-12.37,72.39-11.61,18.64.59,36.39-2.83,54.46-9.33-10.13,16.45-47.33,18.15-64.04,18.52-14.52,14.09-21.2,38.47-31.75,55.78-9.19,15.08-26.22,23.73-43.66,20.24-7.95-1.59-14.81-6.44-17.64-13.93-2.25-5.93-.08-11.98,3.63-16.54s10.07-7.08,16.12-5.49c.01,3.74-.11,8.21,2.04,10.49,6.8,7.26,16.95,6.26,24.2.39Z"/>
      <path d="M381.74,278.44c-3.87,11.79-18.7,17.39-29.42,12.78-5.77-2.48-7.5-8.88-6.59-14.01,1-5.65,5.67-10.69,11.72-10.47.17,2.76.36,5.9,1.27,7.77,1.16,2.37,8.19,4.27,12.18.98,7.76-6.42-13.29-20.02-5.36-31.9,3.88-5.82,12.61-8.15,18.77-5.64,4.85,1.98,6.25,6.97,4.57,10.52-2.28,4.82-7.54,5.92-12.03,2.4l4.18-6.38c-.85-1.62-3.91-2.44-5.51-1.97s-3.65,3.94-2.89,5.73c3.16,7.41,13.41,17.1,9.13,30.17Z"/>
      <path d="M360.37,239.49l3.41-6.35c-4.61-2.76-4.26-7.29-1.29-11.1,2.14-2.74,8.9-3.73,10.57,1.28,2.5,7.48-4.63,15.7-12.69,16.17Z"/>
      <path d="M277.98,233.42c-1.04,2.15-3.08,4.38-4.78,4.94-2.14.7-5.96.1-7.19-1.75-1.56-2.36-.94-5.95.24-7.98,1.5-2.56,4.59-4.71,7.8-4.19,4.25.69,5.62,5.45,3.92,8.98Z"/>
    </g>
    <path d="M518.69,184.44c6.91-.6,26.86-.99,28.52,7.24,2.08,10.3-18.73,15.76-26.83,17.05-24.23,3.86-48.22,3.27-72.54-.71l-71.05-11.62-55.25-7.16c-23.62-3.06-47-1.87-70.21,3.52-14.76,3.43-28.67,6.08-43.23,10.6-34.23,10.63-67.04,22.87-100.64,35.37l-65.18,24.26c-10.78,4.01-32.68,11.25-39.72.45-2.22-3.4-4.39-10.27-.13-13.36,11.61-8.42,41.23-11.4,65.7-27.48,15.95-10.47,30.51-22.01,45.45-34.15-7.61-5.58-14.36-9.95-21.11-15.55-13.49-11.19-28.12-35.36-27.48-53.89-16.54-9.06-31.31-19.51-31.36-40.3l-.03-14.48C16.9,51.62,3.22,17.88,25.28,4.1c5.74,9.29,4.77,15.93,15.41,25.23.72.63,2.87,1.72,3.8,1.61,3.33-.4,12.75-17.62,42.47-14.23,8.87,1.01,16.83,3.05,24.63,8.48,7.84-5.28,13.92-12.8,17.53-21.75.41-1.01,2.1-2.63,3.23-3.44,8.65,8.67,11.24,21.85,5.81,33.05l-9.04,18.66c14.15,20.67,11.39,28.62,6.13,51.95,19.8,18.97,53.69,5.1,77.65-2.45l40.83-12.88c19.46-6.14,39.64-6.93,59.86-8.19,15.52-.97,30.34-.14,45.92-.32l44.7-.53c20.91-.25,40.96-3.74,61.17-8.78,18.28-4.56,34.59-12.11,49.4-23.56l29.23-22.6c4.08-3.15,13.76-10.94,18.31-8.05,1.08.69,2.37,3.3,2.32,4.74-.6,17.07-24.33,37.34-38.3,44.93l-14.95,8.12c-20.58,11.17-41.96,19.09-64.99,24l-26.11,5.56c-12.44,2.65-24.5,5.08-37.26,8.51,5.48,2.47,9.21,4.74,13.67,8.1,5.93,4.47,12.59,8.29,17.35,14.04,11.74,14.16,28.5,32.43,44.43,41.08,17.1,9.29,40.87,10.73,60.21,9.06ZM114.41,62.44l-5.98,9.32-7.57-11.18c-4.99,4.37-5.41,9.92-2.79,14.99,2.19,4.22,6.79,7.46,11.78,6.58s9.61-3.04,10.7-8.88c.81-4.3-2.37-8.31-6.14-10.82ZM71.05,65.06l-5.9,9.61-6.03-10.55c-4.71,2.95-7.48,9.35-4.73,14.62,3.09,5.92,11.34,8.78,16.91,5.53,4.02-2.34,6.06-6,5.99-9.97s-2.73-7.68-6.24-9.25ZM110.69,108.85l-14.27-4.18c-5.63-1.65,2.69-9.86-4.94-11.97-2.17-.6-5.5.55-6.43,2.86-1.26,3.1,1.28,5.87,3.8,7.72-.72,5.03-7.03,6.7-10.61,10.51,5.79.77,9.49-5.08,13.55-7.3,6.38.98,12.15,5.8,18.9,2.36Z"/>
  </g>
</svg>